<svg width="35" height="22" viewBox="0 0 35 22" fill="none" xmlns="http://www.w3.org/2000/svg">
<path d="M4.59397 0.183529H1.197C0.902566 0.183529 0.739969 0.521909 0.920144 0.750425L16.3933 20.561C16.5242 20.7293 16.6918 20.8655 16.8833 20.9592C17.0749 21.0529 17.2853 21.1016 17.4985 21.1016C17.7117 21.1016 17.9221 21.0529 18.1137 20.9592C18.3052 20.8655 18.4728 20.7293 18.6037 20.561L34.0769 0.750425C34.2571 0.517515 34.0945 0.183529 33.8 0.183529L30.4031 0.183529C30.1877 0.183529 29.9812 0.284603 29.8493 0.451595L17.5007 16.2719L5.14768 0.451595C5.01585 0.284603 4.8093 0.183529 4.59397 0.183529V0.183529Z" fill="white"/>
</svg>
