<svg width="24" height="24" viewBox="0 0 46 46" fill="none" xmlns="http://www.w3.org/2000/svg">
    <path d="M34 1L12 1C5.92487 1 1 5.92487 1 12L1 34C1 40.0751 5.92487 45 12 45L34 45C40.0751 45 45 40.0751 45 34L45 12C45 5.92487 40.0751 1 34 1Z" stroke="white" stroke-width="1.5" stroke-linecap="round" stroke-linejoin="round" />
    <path d="M31.7997 21.6147C32.0713 23.4456 31.7585 25.3155 30.906 26.9585C30.0535 28.6015 28.7047 29.9338 27.0513 30.7659C25.398 31.5981 23.5243 31.8878 21.6969 31.5937C19.8694 31.2997 18.1812 30.4368 16.8724 29.128C15.5636 27.8192 14.7008 26.131 14.4067 24.3035C14.1126 22.4761 14.4023 20.6024 15.2345 18.9491C16.0666 17.2957 17.399 15.9469 19.0419 15.0944C20.6849 14.2419 22.5548 13.9292 24.3857 14.2007C26.2534 14.4776 27.9824 15.3479 29.3175 16.6829C30.6525 18.018 31.5228 19.747 31.7997 21.6147Z" stroke="white" stroke-width="1.5" stroke-linecap="round" stroke-linejoin="round" />
    <path d="M35.0996 10.9004H35.1211" stroke="white" stroke-width="1.5" stroke-linecap="round" stroke-linejoin="round" />
</svg>