<svg width="24" height="24" viewBox="0 0 55 46" fill="none" xmlns="http://www.w3.org/2000/svg">
    <path d="M54 1.5241C51.693 3.1428 49.1387 4.38085 46.4355 5.19057C44.9846 3.5311 43.0563 2.35491 40.9115 1.82107C38.7667 1.28724 36.5088 1.42152 34.4432 2.20576C32.3776 2.98999 30.604 4.38634 29.3622 6.20596C28.1204 8.02557 27.4704 10.1807 27.5 12.3797L27.5 14.7761C23.2663 14.8853 19.0713 13.9513 15.2883 12.0573C11.5054 10.1633 8.25213 7.36801 5.81818 3.92048C5.81818 3.92048 -3.81818 25.488 17.8636 35.0735C12.9022 38.4236 6.99179 40.1034 1 39.8663C22.6818 51.8482 49.1818 39.8663 49.1818 12.3078C49.1796 11.6403 49.1151 10.9745 48.9891 10.3188C51.4478 7.90686 53.1829 4.86158 54 1.5241V1.5241Z" stroke="white" stroke-width="1.5" stroke-linecap="round" stroke-linejoin="round" />
</svg>